name rise30.3154peak39.0474fall46.5389.mot
datacolumns 19
datarows 35
range 7.58997200000000 7.64664200000000
endheader
time	ground_force1_vx	ground_force1_vy	ground_force1_vz	ground_force1_px	ground_force1_py	ground_force1_pz	ground_force2_vx	ground_force2_vy	ground_force2_vz	ground_force2_px	ground_force2_py	ground_force2_pz	ground_torque1_x	ground_torque1_y	ground_torque1_z	ground_torque2_x	ground_torque2_y	ground_torque2_z	
7.58997200000000	-59.20448400000000	805.52084000000002	58.83552200000000	0.11949200000000	0.00000000000000	0.12858400000000	0.00000000000000	0.00000000000000	0.00000000000000	0.00000000000000	0.00000000000000	0.00000000000000	0.00000000000000	28.02803900000000	0.00000000000000	0.00000000000000	0.00000000000000	0.00000000000000	
7.59165500000000	-60.01538100000000	803.67409799999996	59.02636000000000	0.11837000000000	0.00000000000000	0.12857400000000	-1.16814200000000	3.60452800000000	1.14022900000000	0.00000000000000	0.00000000000000	0.00000000000000	0.00000000000000	28.10006800000000	0.00000000000000	0.00000000000000	0.38317400000000	0.00000000000000	
7.59330800000000	-60.83434200000000	801.72317699999996	59.20114900000000	0.11726000000000	0.00000000000000	0.12856100000000	-1.86312100000000	7.16679400000000	1.96612200000000	0.00000000000000	0.00000000000000	0.00000000000000	0.00000000000000	28.17069100000000	0.00000000000000	0.00000000000000	0.67666000000000	0.00000000000000	
7.59497800000000	-61.66084900000000	799.66772400000002	59.35891900000000	0.11616500000000	0.00000000000000	0.12854500000000	-2.64719500000000	11.50086800000000	2.92989700000000	0.00000000000000	0.00000000000000	0.00000000000000	0.00000000000000	28.23979400000000	0.00000000000000	0.00000000000000	1.02197300000000	0.00000000000000	
7.59665200000000	-62.49434500000000	797.50733600000001	59.49870900000000	0.11508600000000	0.00000000000000	0.12852500000000	-3.49577500000000	16.56898400000000	4.01105900000000	0.00000000000000	0.00000000000000	0.00000000000000	0.00000000000000	28.30725800000000	0.00000000000000	0.00000000000000	1.41259700000000	0.00000000000000	
7.59830800000000	-63.33422800000000	795.24155800000005	59.61957100000000	0.11402300000000	0.00000000000000	0.12850200000000	-4.37823400000000	22.30021200000000	5.18159500000000	0.00000000000000	0.00000000000000	0.00000000000000	0.00000000000000	28.37295600000000	0.00000000000000	0.00000000000000	1.83931200000000	0.00000000000000	
7.59998700000000	-64.17985700000000	792.86987399999998	59.72057400000000	0.11297700000000	0.00000000000000	0.12847400000000	-5.25987800000000	28.59590100000000	6.40782200000000	0.30157400000000	0.00000000000000	-0.06357000000000	0.00000000000000	28.43675100000000	0.00000000000000	0.00000000000000	3.88887500000000	0.00000000000000	
7.60165400000000	-65.03054600000000	790.39169900000002	59.80080400000000	0.11195000000000	0.00000000000000	0.12844200000000	-6.10442300000000	35.33806400000000	7.65288600000000	0.31130500000000	0.00000000000000	-0.06397700000000	0.00000000000000	28.49850100000000	0.00000000000000	0.00000000000000	4.74638600000000	0.00000000000000	
7.60331000000000	-65.88556900000000	787.80637700000000	59.85936700000000	0.11094200000000	0.00000000000000	0.12840600000000	-6.87666500000000	42.39961600000000	8.87957900000000	0.32004000000000	0.00000000000000	-0.06434300000000	0.00000000000000	28.55805300000000	0.00000000000000	0.00000000000000	5.61704100000000	0.00000000000000	
7.60497300000000	-66.74415700000000	785.11317499999996	59.89539500000000	0.10995400000000	0.00000000000000	0.12836500000000	-7.54499700000000	49.65497900000000	10.05309300000000	0.32793900000000	0.00000000000000	-0.06467800000000	0.00000000000000	28.61524900000000	0.00000000000000	0.00000000000000	6.47691000000000	0.00000000000000	
7.60664100000000	-67.60549700000000	782.31128000000001	59.90804300000000	0.10898600000000	0.00000000000000	0.12832000000000	-8.08342900000000	56.98964500000000	11.14335700000000	0.33512800000000	0.00000000000000	-0.06498900000000	0.00000000000000	28.66991800000000	0.00000000000000	0.00000000000000	7.30428900000000	0.00000000000000	
7.60831100000000	-68.46873800000000	779.39979100000005	59.89649900000000	0.10804000000000	0.00000000000000	0.12826900000000	-8.47293400000000	64.30767400000001	12.12671500000000	0.34170500000000	0.00000000000000	-0.06528000000000	0.00000000000000	28.72188500000000	0.00000000000000	0.00000000000000	8.08103000000000	0.00000000000000	
7.60997600000000	-69.33298300000000	776.37772399999994	59.85997700000000	0.10711600000000	0.00000000000000	0.12821400000000	-8.70204900000000	71.53659700000000	12.98684200000000	0.34775100000000	0.00000000000000	-0.06555600000000	0.00000000000000	28.77096300000000	0.00000000000000	0.00000000000000	8.79340300000000	0.00000000000000	
7.61164000000000	-70.19729400000000	773.24400700000001	59.79773000000000	0.10621400000000	0.00000000000000	0.12815300000000	-8.76676900000000	78.62961000000000	13.71493200000000	0.35333000000000	0.00000000000000	-0.06581900000000	0.00000000000000	28.81695700000000	0.00000000000000	0.00000000000000	9.43246300000000	0.00000000000000	
7.61330300000000	-71.06069100000001	769.99747600000001	59.70904300000000	0.10533500000000	0.00000000000000	0.12808700000000	-8.66985500000000	85.56530700000000	14.30922800000000	0.35849600000000	0.00000000000000	-0.06607300000000	0.00000000000000	28.85966600000000	0.00000000000000	0.00000000000000	9.99397000000000	0.00000000000000	
7.61497200000000	-71.92215000000000	766.63688200000001	59.59324300000000	0.10447800000000	0.00000000000000	0.12801600000000	-8.41970000000000	92.34535099999999	14.77406100000000	0.36329300000000	0.00000000000000	-0.06631900000000	0.00000000000000	28.89887700000000	0.00000000000000	0.00000000000000	10.47793000000000	0.00000000000000	
7.61664200000000	-72.78060700000000	763.16088800000000	59.44969500000000	0.10364500000000	0.00000000000000	0.12793900000000	-8.02893200000000	98.99066300000000	15.11855000000000	0.36775900000000	0.00000000000000	-0.06656000000000	0.00000000000000	28.93437000000000	0.00000000000000	0.00000000000000	10.88786200000000	0.00000000000000	
7.61831000000000	-73.63495399999999	759.56807400000002	59.27781100000000	0.10283600000000	0.00000000000000	0.12785600000000	-7.51291600000000	105.53667700000000	15.35513900000000	0.37192500000000	0.00000000000000	-0.06679600000000	0.00000000000000	28.96591500000000	0.00000000000000	0.00000000000000	11.22989700000000	0.00000000000000	
7.61997200000000	-74.48403999999999	755.85693500000002	59.07704500000000	0.10204900000000	0.00000000000000	0.12776800000000	-6.88828500000000	112.02823900000000	15.49811600000000	0.37581900000000	0.00000000000000	-0.06702900000000	0.00000000000000	28.99327700000000	0.00000000000000	0.00000000000000	11.51182800000000	0.00000000000000	
7.62165400000000	-75.32667400000000	752.02589300000000	58.84690100000000	0.10128600000000	0.00000000000000	0.12767400000000	-6.17162500000000	118.51460500000000	15.56223400000000	0.37946300000000	0.00000000000000	-0.06726000000000	0.00000000000000	29.01620800000000	0.00000000000000	0.00000000000000	11.74217500000000	0.00000000000000	
7.62330600000000	-76.16162100000000	748.07329500000003	58.58693300000000	0.10054600000000	0.00000000000000	0.12757400000000	-5.37839100000000	125.04494500000000	15.56153500000000	0.38287800000000	0.00000000000000	-0.06749000000000	0.00000000000000	29.03445600000000	0.00000000000000	0.00000000000000	11.92936200000000	0.00000000000000	
7.62497300000000	-76.98760500000000	743.99742300000003	58.29674600000000	0.09983000000000	0.00000000000000	0.12746800000000	-4.52208900000000	131.66459200000000	15.50843100000000	0.38608200000000	0.00000000000000	-0.06771900000000	0.00000000000000	29.04776000000000	0.00000000000000	0.00000000000000	12.08103700000000	0.00000000000000	
7.62665700000000	-77.80330800000000	739.79649800000004	57.97600100000000	0.09913600000000	0.00000000000000	0.12735600000000	-3.61376000000000	138.41221800000000	15.41306500000000	0.38908900000000	0.00000000000000	-0.06794700000000	0.00000000000000	29.05585200000000	0.00000000000000	0.00000000000000	12.20357900000000	0.00000000000000	
7.62830400000000	-78.60737200000000	735.46869200000003	57.62441200000000	0.09846500000000	0.00000000000000	0.12723800000000	-2.66173200000000	145.31797599999999	15.28296100000000	0.39191400000000	0.00000000000000	-0.06817600000000	0.00000000000000	29.05845700000000	0.00000000000000	0.00000000000000	12.30178600000000	0.00000000000000	
7.62997000000000	-79.39839800000000	731.01213299999995	57.24175400000000	0.09781600000000	0.00000000000000	0.12711400000000	-1.67162500000000	152.40258100000000	15.12292100000000	0.39456800000000	0.00000000000000	-0.06840500000000	0.00000000000000	29.05529400000000	0.00000000000000	0.00000000000000	12.37874400000000	0.00000000000000	
7.63164400000000	-80.17495000000000	726.42491900000005	56.82786000000000	0.09718900000000	0.00000000000000	0.12698400000000	-0.64655900000000	159.67722100000000	14.93516100000000	0.39706300000000	0.00000000000000	-0.06863500000000	0.00000000000000	29.04607600000000	0.00000000000000	0.00000000000000	12.43585100000000	0.00000000000000	
7.63330800000000	-80.93554899999999	721.70512399999996	56.38262400000000	0.09658300000000	0.00000000000000	0.12684800000000	0.41249300000000	167.14417200000000	14.71959800000000	0.39940700000000	0.00000000000000	-0.06886700000000	0.00000000000000	29.03051200000000	0.00000000000000	0.00000000000000	12.47297100000000	0.00000000000000	
7.63497300000000	-81.67868500000000	716.85081800000000	55.90600200000000	0.09599800000000	0.00000000000000	0.12670600000000	1.50624900000000	174.79791299999999	14.47426900000000	0.40161000000000	0.00000000000000	-0.06909900000000	0.00000000000000	29.00830500000000	0.00000000000000	0.00000000000000	12.48868100000000	0.00000000000000	
7.63665400000000	-82.40280799999999	711.86007400000005	55.39801400000000	0.09543300000000	0.00000000000000	0.12655800000000	2.63662200000000	182.62659500000001	14.19581100000000	0.40367800000000	0.00000000000000	-0.06933300000000	0.00000000000000	28.97915500000000	0.00000000000000	0.00000000000000	12.48056800000000	0.00000000000000	
7.63830700000000	-83.10633799999999	706.73098400000003	54.85874500000000	0.09488800000000	0.00000000000000	0.12640400000000	3.80622400000000	190.61366699999999	13.87995300000000	0.40562000000000	0.00000000000000	-0.06956900000000	0.00000000000000	28.94276100000000	0.00000000000000	0.00000000000000	12.44556100000000	0.00000000000000	
7.63997200000000	-83.78766000000000	701.46167800000001	54.28834400000000	0.09436100000000	0.00000000000000	0.12624500000000	5.01790600000000	198.73952100000000	13.52199800000000	0.40744200000000	0.00000000000000	-0.06980600000000	0.00000000000000	28.89881800000000	0.00000000000000	0.00000000000000	12.38024800000000	0.00000000000000	
7.64164000000000	-84.44513300000000	696.05034100000000	53.68702600000000	0.09385200000000	0.00000000000000	0.12607900000000	6.27436300000000	206.98303400000000	13.11724300000000	0.40914900000000	0.00000000000000	-0.07004400000000	0.00000000000000	28.84702100000000	0.00000000000000	0.00000000000000	12.28117100000000	0.00000000000000	
7.64330400000000	-85.07708900000000	690.49522700000000	53.05507300000000	0.09336100000000	0.00000000000000	0.12590800000000	7.57782300000000	215.32290300000000	12.66133000000000	0.41074700000000	0.00000000000000	-0.07028400000000	0.00000000000000	28.78706500000000	0.00000000000000	0.00000000000000	12.14507500000000	0.00000000000000	
7.64497100000000	-85.68183399999999	684.79468099999997	52.39283200000000	0.09288600000000	0.00000000000000	0.12573200000000	8.92981800000000	223.73872900000001	12.15050900000000	0.41224000000000	0.00000000000000	-0.07052600000000	0.00000000000000	28.71864500000000	0.00000000000000	0.00000000000000	11.96909700000000	0.00000000000000	
7.64664200000000	-86.25765500000000	678.94716000000005	51.70071700000000	0.09242600000000	0.00000000000000	0.12554900000000	10.33105200000000	232.21181000000001	11.58182000000000	0.41363300000000	0.00000000000000	-0.07076900000000	0.00000000000000	28.64146100000000	0.00000000000000	0.00000000000000	11.75090900000000	0.00000000000000	
